<svg xmlns="http://www.w3.org/2000/svg" xmlns:xlink="http://www.w3.org/1999/xlink" viewBox="0 0 1002.57 824.93"><defs><style>.cls-1{fill:url(#linear-gradient);}.cls-2{fill:url(#linear-gradient-2);}.cls-3{fill:url(#linear-gradient-3);}.cls-4{fill:url(#linear-gradient-4);}.cls-5{fill:url(#linear-gradient-5);}.cls-6{fill:url(#linear-gradient-6);}.cls-7{fill:url(#linear-gradient-7);}.cls-8{fill:url(#linear-gradient-8);}.cls-9{fill:url(#linear-gradient-9);}.cls-10{fill:url(#linear-gradient-14);}.cls-11{fill:#bababa;}.cls-12{fill:url(#linear-gradient-15);}.cls-13{fill:url(#linear-gradient-16);}.cls-14{fill:url(#linear-gradient-17);}.cls-15{fill:url(#linear-gradient-18);}.cls-16{fill:url(#linear-gradient-19);}</style><linearGradient id="linear-gradient" x1="41.54" y1="433.59" x2="41.54" y2="-17.33" gradientUnits="userSpaceOnUse"><stop offset="0" stop-color="#f26430"/><stop offset="1" stop-color="#bababa"/></linearGradient><linearGradient id="linear-gradient-2" x1="125.87" y1="433.59" x2="125.87" y2="-17.33" xlink:href="#linear-gradient"/><linearGradient id="linear-gradient-3" x1="203.67" y1="433.59" x2="203.67" y2="-17.33" xlink:href="#linear-gradient"/><linearGradient id="linear-gradient-4" x1="296.8" y1="433.59" x2="296.8" y2="-17.33" xlink:href="#linear-gradient"/><linearGradient id="linear-gradient-5" x1="392.48" y1="433.59" x2="392.48" y2="-17.33" xlink:href="#linear-gradient"/><linearGradient id="linear-gradient-6" x1="478.95" y1="433.59" x2="478.95" y2="-17.33" xlink:href="#linear-gradient"/><linearGradient id="linear-gradient-7" x1="953.87" y1="734.73" x2="149.86" y2="734.73" xlink:href="#linear-gradient"/><linearGradient id="linear-gradient-8" x1="953.87" y1="735.9" x2="149.86" y2="735.9" xlink:href="#linear-gradient"/><linearGradient id="linear-gradient-9" x1="953.87" y1="735.75" x2="149.84" y2="735.75" xlink:href="#linear-gradient"/><linearGradient id="linear-gradient-14" x1="953.87" y1="735.8" x2="149.86" y2="735.8" xlink:href="#linear-gradient"/><linearGradient id="linear-gradient-15" x1="142.33" y1="433.59" x2="142.33" y2="-17.33" xlink:href="#linear-gradient"/><linearGradient id="linear-gradient-16" x1="231.22" y1="433.59" x2="231.22" y2="-17.33" xlink:href="#linear-gradient"/><linearGradient id="linear-gradient-17" x1="317.87" y1="433.59" x2="317.87" y2="-17.33" xlink:href="#linear-gradient"/><linearGradient id="linear-gradient-18" x1="396.45" y1="433.59" x2="396.45" y2="-17.33" xlink:href="#linear-gradient"/><linearGradient id="linear-gradient-19" x1="470.92" y1="433.59" x2="470.92" y2="-17.33" xlink:href="#linear-gradient"/></defs><title>title</title><g id="Layer_2" data-name="Layer 2"><g id="Layer_2-2" data-name="Layer 2"><path class="cls-1" d="M0,170.15V1.93H35.2q13.68,0,22.89,3a31.92,31.92,0,0,1,14.77,9.64,38.88,38.88,0,0,1,7.89,16.18,101.8,101.8,0,0,1,2.33,23.59v60.67a108.1,108.1,0,0,1-2.37,24.45,43.9,43.9,0,0,1-7.8,17,31.46,31.46,0,0,1-14.46,10.3q-9,3.3-22.16,3.3Zm27.54-21.51h7.84a28.57,28.57,0,0,0,7.21-.81,24.12,24.12,0,0,0,5.2-1.93,8.85,8.85,0,0,0,3.51-3.65,29.18,29.18,0,0,0,2.14-4.67,28.81,28.81,0,0,0,1.09-6.44q.36-4.31.46-7.36t.09-9V53.27q0-6-.18-9.64A56,56,0,0,0,54,36.27a15.93,15.93,0,0,0-2-5.73,15,15,0,0,0-3.51-3.7A13.13,13.13,0,0,0,43,24.5a41,41,0,0,0-7.93-.66H27.54Z"/><path class="cls-2" d="M94,170.15V1.93h63.29V23.54H121.54v48.3h28.27V93.45H121.54v55.5h36.21v21.21Z"/><path class="cls-3" d="M164.27,170.15V1.93h19l37,95.27V1.93h22.8V170.15H225L187.62,70V170.15Z"/><path class="cls-4" d="M294.2,172.39q-21.43,0-30.87-14.92T253.89,114V59.25a132.22,132.22,0,0,1,2.05-25,55.38,55.38,0,0,1,6.89-18.42A30.24,30.24,0,0,1,276.14,4q8.48-4,20.79-4,22.44,0,32.19,12.23t9.76,37.08v8.22H312.53V48.8q0-5.58-.23-9.13a42.16,42.16,0,0,0-1.09-7.15A13.28,13.28,0,0,0,308.7,27a12,12,0,0,0-4.47-3.15,17.52,17.52,0,0,0-6.93-1.22,16.39,16.39,0,0,0-5.52.86,14.67,14.67,0,0,0-4.06,2.13,10,10,0,0,0-2.78,3.6,25.59,25.59,0,0,0-1.73,4.52,33.9,33.9,0,0,0-.91,5.63q-.32,3.45-.41,6.09t-.09,6.8v67.88q0,15.22,3.38,22.27T298,149.46a15.3,15.3,0,0,0,8.25-2.08,13.7,13.7,0,0,0,5.2-6.29,36.38,36.38,0,0,0,2.64-9.64,94.81,94.81,0,0,0,.78-13.14v-13.8H298.58V84.72h41.13v85.43H321.83l-2-17Q313,172.39,294.2,172.39Z"/><path class="cls-5" d="M392.57,172.18A52.55,52.55,0,0,1,375,169.54a32.29,32.29,0,0,1-12.22-7.41,34.42,34.42,0,0,1-7.66-12.23,70.1,70.1,0,0,1-4-16.13A156.13,156.13,0,0,1,350,113.64V1.93H376.7V116.78q0,5.89.27,10a67.06,67.06,0,0,0,1.19,8.73,22.32,22.32,0,0,0,2.6,7.31,13.91,13.91,0,0,0,4.65,4.57,14.95,14.95,0,0,0,14.32,0,13.11,13.11,0,0,0,4.56-4.57,24.76,24.76,0,0,0,2.55-7.31,58,58,0,0,0,1.19-8.68q.23-4.11.23-10.1V1.93H435V113.64a156.49,156.49,0,0,1-1.14,20.14,70.2,70.2,0,0,1-4,16.13,34.8,34.8,0,0,1-7.62,12.23A31.88,31.88,0,0,1,410,169.54,52.25,52.25,0,0,1,392.57,172.18Z"/><path class="cls-6" d="M447.07,170.15V1.93h63.29V23.54H474.61v48.3h28.27V93.45H474.61v55.5h36.21v21.21Z"/><path class="cls-7" d="M151.17,819.86V799.57l36.94-64.33q.82-1.52,4.47-7.56t4.83-8.42q1.18-2.38,3.33-7.31a41.86,41.86,0,0,0,2.92-9.23,51.9,51.9,0,0,0,.78-9.18q0-9.94-3.15-15.12t-9.71-4.77q-13.86.71-13.86,27v7H152.18v-7.2a88.4,88.4,0,0,1,2.19-20.65,49.93,49.93,0,0,1,6.75-16,29.57,29.57,0,0,1,12.27-10.55,41.87,41.87,0,0,1,18.1-3.65q19.15,0,29,11.52t9.8,32.62a74.64,74.64,0,0,1-1.19,13.6,57.64,57.64,0,0,1-3.83,12.48q-2.65,6.09-4.92,10.25T214,740.82c-.31.47-.53.85-.68,1.12s-.35.59-.59,1-.46.73-.64,1.07L181,796.62h45.33v23.24Z"/><path class="cls-8" d="M303.72,808.8q-10.12,13.39-29.19,13.39T245.35,808.8q-10.12-13.39-10.12-35.72v-74q0-23,9.8-36.27t29.5-13.24q19.52,0,29.41,13.29t9.89,36.22v74Q313.84,795.41,303.72,808.8Zm-29.19-11.36q13.13,0,13.13-24.76V699.63q0-3.25-.18-5.94t-.59-5.73a21.12,21.12,0,0,0-1.37-5.33,23.36,23.36,0,0,0-2.33-4.26,8.63,8.63,0,0,0-3.6-3,12.13,12.13,0,0,0-5.06-1,10.83,10.83,0,0,0-5.88,1.57,11.42,11.42,0,0,0-3.88,3.91,20.14,20.14,0,0,0-2.14,5.94,48.82,48.82,0,0,0-1,6.7q-.23,3.1-.23,7.15v73.05Q261.4,797.44,274.53,797.44Z"/><path class="cls-9" d="M353.2,819.86V684.2l-24.35,7.2V669.9q23.26-8.62,30.46-18.26H379.1V819.86Z"/><path class="cls-8" d="M444,822.19q-20.25,0-29.91-12.48t-9.67-35.21v-6h25.9v4.67q.18,12.78,3.06,18.87t10.81,6.09a12.67,12.67,0,0,0,6-1.32,11,11,0,0,0,4-3.4,15.64,15.64,0,0,0,2.23-5.68,53.3,53.3,0,0,0,1-7.26q.27-3.65.27-8.93,0-13.39-3.92-20.39t-13.68-7.61l-2-.05-1.92-.05V719.31a30.82,30.82,0,0,0,3.47-.1q10-.3,14-5.83t4-18.21q0-11.16-3.05-16.74t-10.81-5.58a12.51,12.51,0,0,0-5.7,1.22,10.46,10.46,0,0,0-3.88,3.25,16.12,16.12,0,0,0-2.33,5.23,38.89,38.89,0,0,0-1.19,6.54q-.32,3.35-.41,7.81v5.68h-25.9v-7.81q0-21.51,10.26-33.33t29.14-11.82q19.06,0,29.32,11.57t10.26,33q0,14.31-5.56,23.85t-14.78,12.48q9.76,3.75,15,14t5.29,26.74q0,24-9.49,37.54T444,822.19Z"/><path class="cls-7" d="M618.68,819.86V799.57l36.94-64.33q.82-1.52,4.47-7.56t4.83-8.42q1.18-2.38,3.33-7.31a41.86,41.86,0,0,0,2.92-9.23,51.9,51.9,0,0,0,.78-9.18q0-9.94-3.15-15.12t-9.71-4.77q-13.86.71-13.86,27v7H619.69v-7.2a88.4,88.4,0,0,1,2.19-20.65,49.93,49.93,0,0,1,6.75-16,29.57,29.57,0,0,1,12.27-10.55A41.87,41.87,0,0,1,659,649.6q19.15,0,29,11.52t9.8,32.62a74.64,74.64,0,0,1-1.19,13.6,57.64,57.64,0,0,1-3.83,12.48q-2.65,6.09-4.92,10.25t-6.29,10.75c-.31.47-.53.85-.68,1.12s-.35.59-.59,1-.46.73-.64,1.07l-31.1,52.66h45.33v23.24Z"/><path class="cls-8" d="M771.23,808.8Q761.1,822.19,742,822.19T712.86,808.8q-10.12-13.39-10.12-35.72v-74q0-23,9.8-36.27T742,649.6q19.52,0,29.41,13.29t9.89,36.22v74Q781.35,795.41,771.23,808.8ZM742,797.44q13.13,0,13.13-24.76V699.63q0-3.25-.18-5.94T754.4,688a21.12,21.12,0,0,0-1.37-5.33,23.36,23.36,0,0,0-2.33-4.26,8.63,8.63,0,0,0-3.6-3,12.13,12.13,0,0,0-5.06-1,10.83,10.83,0,0,0-5.88,1.57,11.42,11.42,0,0,0-3.88,3.91,20.14,20.14,0,0,0-2.14,5.94,48.82,48.82,0,0,0-1,6.7q-.23,3.1-.23,7.15v73.05Q728.91,797.44,742,797.44Z"/><path class="cls-9" d="M820.71,819.86V684.2l-24.35,7.2V669.9q23.26-8.62,30.46-18.26h19.79V819.86Z"/><path class="cls-10" d="M911.51,821.89q-37.58,0-38.12-42.72v-2h25.08q0,11.47,2.69,16.79t10.53,5.33q7.29,0,10.26-8.07t3-26.94V744.37q-5.66,10.65-20.16,10.86a30.54,30.54,0,0,1-12.86-2.38,25.26,25.26,0,0,1-9.3-6.8,35.65,35.65,0,0,1-6-10.65,63.57,63.57,0,0,1-3.37-13.49,113.09,113.09,0,0,1-1-15.68,106.69,106.69,0,0,1,2.19-22.63,59.53,59.53,0,0,1,6.75-17.76,31.69,31.69,0,0,1,12.27-11.92,41.05,41.05,0,0,1,36.12-.05,32.46,32.46,0,0,1,12.36,11.67,57.34,57.34,0,0,1,6.93,17.25,95.51,95.51,0,0,1,2.28,21.71V762A149.87,149.87,0,0,1,950,781a77.35,77.35,0,0,1-3.88,16.28A43.57,43.57,0,0,1,939,810.37a30.3,30.3,0,0,1-11.35,8.42A39.36,39.36,0,0,1,911.51,821.89Zm.27-88.48q8.48,0,13.13-9.74V698.31q0-26.28-13.32-26.28a10,10,0,0,0-6.61,2.23,13.85,13.85,0,0,0-4.1,6.44,43.85,43.85,0,0,0-2,9.13,105.6,105.6,0,0,0-.55,11.52V707q0,1.88.14,5.23t.36,5.07q.23,1.73.68,4.36a17.6,17.6,0,0,0,1.09,4.06,28.84,28.84,0,0,0,1.69,3.15,7.35,7.35,0,0,0,2.37,2.54,15.42,15.42,0,0,0,3.1,1.42A12.18,12.18,0,0,0,911.79,733.41Z"/><path class="cls-11" d="M165.89,596.55V428.33h43.5q38.67,0,38.67,47.79,0,23.44-10.58,34.34t-29.82,10.91H193.44v75.18Zm27.54-96.69h8.85q11.67,0,15.78-5.12t4.1-18.82a101.08,101.08,0,0,0-.55-12.07,20.78,20.78,0,0,0-2.55-7.76,10.42,10.42,0,0,0-6-4.82,35.08,35.08,0,0,0-10.72-1.32h-8.94Z"/><path class="cls-11" d="M253.69,596.55V428.33h27.54v70.31H312V428.33h27.54V596.55H312v-76.1H281.23v76.1Z"/><path class="cls-11" d="M353.88,596.55V428.33h27.18V596.55Z"/><path class="cls-11" d="M395,596.55V428.33h27.54v147h36.21v21.21Z"/><path class="cls-11" d="M464.8,596.55V428.33H492V596.55Z"/><path class="cls-11" d="M505.89,596.55V428.33h43.5q38.67,0,38.67,47.79,0,23.44-10.58,34.34t-29.82,10.91H533.44v75.18Zm27.54-96.69h8.85q11.67,0,15.78-5.12t4.1-18.82a101.08,101.08,0,0,0-.55-12.07,20.78,20.78,0,0,0-2.55-7.76,10.42,10.42,0,0,0-6-4.82,35.08,35.08,0,0,0-10.72-1.32h-8.94Z"/><path class="cls-11" d="M593.41,596.55V428.33h43.5q38.67,0,38.67,47.79,0,23.44-10.58,34.34t-29.82,10.91H621v75.18ZM621,499.86h8.85q11.67,0,15.78-5.12t4.1-18.82a101.08,101.08,0,0,0-.55-12.07,20.78,20.78,0,0,0-2.55-7.76,10.42,10.42,0,0,0-6-4.82,35.08,35.08,0,0,0-10.72-1.32H621Z"/><path class="cls-11" d="M681.75,596.55V428.33h27.18V596.55Z"/><path class="cls-11" d="M722.84,596.55V428.33h19l37,95.27V428.33h22.8V596.55H783.58L746.19,496.41V596.55Z"/><path class="cls-11" d="M814.92,596.55V428.33h63.29v21.61H842.46v48.3h28.27v21.61H842.46v55.5h36.21v21.21Z"/><path class="cls-11" d="M923.33,598.58q-39.95,0-42-51.34l24-5.58Q906.27,575,922.5,575q6.29,0,9.35-4.26t3.05-11.47a35,35,0,0,0-2.28-12.84,35.68,35.68,0,0,0-5.29-9.54,119.17,119.17,0,0,0-8.57-9.18l-19.88-19.18a60.94,60.94,0,0,1-13-17.7q-4.29-9.18-4.29-23,0-19.58,10.35-30.44t28.41-11.06A40.45,40.45,0,0,1,935,428.68a30.1,30.1,0,0,1,10.53,6.39,33.13,33.13,0,0,1,6.93,10,58.07,58.07,0,0,1,4.15,12.43,103.88,103.88,0,0,1,1.92,14.36L935,477q-.18-5.07-.59-8.83a53.42,53.42,0,0,0-1.41-7.61,20.59,20.59,0,0,0-2.6-6.24,11.55,11.55,0,0,0-4.29-3.8,11.1,11.1,0,0,0-6.25-1.12q-6.11.41-9.35,4.51t-3.24,11q0,8.12,2.87,13.34a50.11,50.11,0,0,0,9,11.21l19.7,19.07a111,111,0,0,1,8.57,9.64,82.17,82.17,0,0,1,7,10.65,52.06,52.06,0,0,1,5.06,13.19,65,65,0,0,1,1.73,15.22q0,18.36-10.44,29.83T923.33,598.58Z"/><path class="cls-12" d="M143.43,380.61a50,50,0,0,1-17.24-2.74,33.49,33.49,0,0,1-12.36-7.61,37.49,37.49,0,0,1-7.94-12.07,63.3,63.3,0,0,1-4.29-15.47,127,127,0,0,1-1.23-18.62V265.45A131.55,131.55,0,0,1,101.66,246a66.88,66.88,0,0,1,4.29-15.73,34.52,34.52,0,0,1,7.89-11.92,34,34,0,0,1,12.31-7.31,51.61,51.61,0,0,1,17.28-2.64q11.31,0,19.34,3.35a28.83,28.83,0,0,1,12.68,9.84,43.2,43.2,0,0,1,6.75,15.17,86.76,86.76,0,0,1,2.1,20.24v14.41H157.74V257.13q0-12.58-1.19-16.94-2.37-8.52-11.58-9.13h-1.46a18.28,18.28,0,0,0-6.06.91,9.46,9.46,0,0,0-4.24,2.89,18.47,18.47,0,0,0-2.64,4.21,21.78,21.78,0,0,0-1.5,5.83q-.5,3.6-.64,6.65t-.14,7.71v71.23q0,14.82,3.33,21.1t11.9,6.29a16,16,0,0,0,5.15-.76,12.78,12.78,0,0,0,3.74-1.93,9.15,9.15,0,0,0,2.55-3.35,26.48,26.48,0,0,0,1.6-4.06,27.66,27.66,0,0,0,.82-5.23q.27-3.35.32-5.68t0-6.39v-15h26.54v13.8a109.52,109.52,0,0,1-1.19,16.94,57.74,57.74,0,0,1-4.06,14.1,33.39,33.39,0,0,1-7.43,11,31.75,31.75,0,0,1-11.67,6.85A50,50,0,0,1,143.43,380.61Z"/><path class="cls-13" d="M186.16,378.58,216.9,210.35h28.73l30.64,168.23H250.64l-6.11-39.06H218.36l-6.2,39.06Zm35.11-59.05h20.25l-10.12-69.1Z"/><path class="cls-14" d="M319.92,380.61q-39.95,0-42-51.34l24-5.58q.91,33.38,17.15,33.38,6.29,0,9.35-4.26t3.05-11.47a35,35,0,0,0-2.28-12.83,35.68,35.68,0,0,0-5.29-9.54,119.27,119.27,0,0,0-8.57-9.18l-19.88-19.18a61,61,0,0,1-13-17.71q-4.29-9.18-4.29-23,0-19.58,10.35-30.44t28.41-11.06a40.45,40.45,0,0,1,14.68,2.28,30.1,30.1,0,0,1,10.53,6.39,33.13,33.13,0,0,1,6.93,10,58.07,58.07,0,0,1,4.15,12.43,103.88,103.88,0,0,1,1.92,14.36l-23.53,5.17q-.18-5.07-.59-8.83a53.42,53.42,0,0,0-1.41-7.61,20.59,20.59,0,0,0-2.6-6.24,11.55,11.55,0,0,0-4.29-3.8,11.1,11.1,0,0,0-6.25-1.12q-6.11.41-9.35,4.51t-3.24,11q0,8.12,2.87,13.34a50.11,50.11,0,0,0,9,11.21l19.7,19.08a110.88,110.88,0,0,1,8.57,9.64,82.21,82.21,0,0,1,7,10.65A52.08,52.08,0,0,1,356,324.09a65,65,0,0,1,1.73,15.22q0,18.37-10.44,29.83T319.92,380.61Z"/><path class="cls-15" d="M364.57,378.58V210.35h63.29V232H392.12v48.3h28.27v21.61H392.12v55.5h36.21v21.21Z"/><path class="cls-16" d="M473,380.61q-39.95,0-42-51.34l24-5.58q.91,33.38,17.15,33.38,6.29,0,9.35-4.26t3.05-11.47a35,35,0,0,0-2.28-12.83A35.68,35.68,0,0,0,477,319a119.27,119.27,0,0,0-8.57-9.18l-19.88-19.18a61,61,0,0,1-13-17.71q-4.29-9.18-4.29-23,0-19.58,10.35-30.44T470,208.43a40.45,40.45,0,0,1,14.68,2.28,30.1,30.1,0,0,1,10.53,6.39,33.13,33.13,0,0,1,6.93,10,58.07,58.07,0,0,1,4.15,12.43,103.88,103.88,0,0,1,1.92,14.36l-23.53,5.17q-.18-5.07-.59-8.83a53.42,53.42,0,0,0-1.41-7.61,20.59,20.59,0,0,0-2.6-6.24,11.55,11.55,0,0,0-4.29-3.8,11.1,11.1,0,0,0-6.25-1.12q-6.11.41-9.35,4.51t-3.24,11q0,8.12,2.87,13.34a50.11,50.11,0,0,0,9,11.21l19.7,19.08a110.88,110.88,0,0,1,8.57,9.64,82.21,82.21,0,0,1,7,10.65,52.08,52.08,0,0,1,5.06,13.19,65,65,0,0,1,1.73,15.22q0,18.37-10.44,29.83T473,380.61Z"/><path class="cls-11" d="M575.47,245.79V137.62h22.64a47.49,47.49,0,0,1,14.72,2,20.52,20.52,0,0,1,9.5,6.2,25,25,0,0,1,5.07,10.41,65.47,65.47,0,0,1,1.5,15.17v39a69.5,69.5,0,0,1-1.53,15.72,28.23,28.23,0,0,1-5,11,20.23,20.23,0,0,1-9.29,6.62,41.8,41.8,0,0,1-14.25,2.12ZM593.19,232h5a18.37,18.37,0,0,0,4.63-.52,15.54,15.54,0,0,0,3.34-1.24,5.7,5.7,0,0,0,2.26-2.35,18.79,18.79,0,0,0,1.38-3,18.53,18.53,0,0,0,.7-4.14q.23-2.77.29-4.73t.06-5.81V170.63q0-3.85-.12-6.2a36.09,36.09,0,0,0-.56-4.73,10.24,10.24,0,0,0-1.29-3.69,9.66,9.66,0,0,0-2.26-2.38,8.45,8.45,0,0,0-3.52-1.5,26.35,26.35,0,0,0-5.1-.42h-4.87Z"/><path class="cls-11" d="M636.44,245.79V137.62h17.48V245.79Z"/><path class="cls-11" d="M662.87,245.79V137.62H702.8v13.64H680.58V182.7h17.77v13.9H680.58v49.19Z"/><path class="cls-11" d="M706.12,245.79V137.62h39.94v13.64H723.83V182.7H741.6v13.9H723.83v49.19Z"/><path class="cls-11" d="M749.38,245.79V137.62h40.7v13.9h-23v31.06h18.18v13.9H767.09v35.69h23.28v13.64Z"/><path class="cls-11" d="M794.57,245.79V137.62h22.29a54.12,54.12,0,0,1,13.2,1.4,24.76,24.76,0,0,1,9.59,4.7,19.75,19.75,0,0,1,6.1,8.94,41.15,41.15,0,0,1,2,13.8q0,10.18-2.73,16.64a17.55,17.55,0,0,1-9,9.39l13.49,53.3H831.75L820.14,196.4h-7.86v49.39Zm17.71-62h4.28q7.86,0,11.17-3.72T831,167.37q0-8.68-2.87-12.43t-10.56-3.75h-5.34Z"/><path class="cls-11" d="M855.19,245.79V137.62h40.7v13.9h-23v31.06h18.18v13.9H872.9v35.69h23.28v13.64Z"/><path class="cls-11" d="M900.38,245.79V137.62h12.2l23.81,61.26V137.62H951V245.79H939.43l-24-64.39v64.39Z"/><path class="cls-11" d="M969.08,245.79V152.17h-16.3V137.62h49.79v14.55H986.8v93.62Z"/><path class="cls-11" d="M575.47,381.58V273.41h22.29a54.12,54.12,0,0,1,13.2,1.4,24.76,24.76,0,0,1,9.59,4.7,19.75,19.75,0,0,1,6.1,8.94,41.15,41.15,0,0,1,2,13.8q0,10.18-2.73,16.64a17.55,17.55,0,0,1-9,9.39l13.49,53.3H612.66L601,332.19h-7.86v49.39Zm17.71-62h4.28q7.86,0,11.17-3.72T612,303.16q0-8.68-2.87-12.43T598.52,287h-5.34Z"/><path class="cls-11" d="M636.09,381.58V273.41h40.7v13.9h-23v31.06H672v13.9H653.8v35.69h23.28v13.64Z"/><path class="cls-11" d="M705.62,383q-13.78,0-19.85-9.59T679.7,345.5V310.27A85,85,0,0,1,681,294.19a35.63,35.63,0,0,1,4.43-11.84,19.44,19.44,0,0,1,8.56-7.63,31.5,31.5,0,0,1,13.37-2.54q14.43,0,20.7,7.86t6.27,23.85v5.28H717.41v-5.61q0-3.59-.15-5.87a27.09,27.09,0,0,0-.7-4.6,8.52,8.52,0,0,0-1.61-3.56,7.69,7.69,0,0,0-2.87-2,11.27,11.27,0,0,0-4.46-.78,10.54,10.54,0,0,0-3.55.55,9.43,9.43,0,0,0-2.61,1.37,6.43,6.43,0,0,0-1.79,2.32,16.48,16.48,0,0,0-1.11,2.9,21.85,21.85,0,0,0-.59,3.62q-.21,2.22-.26,3.91t-.06,4.37v43.65q0,9.79,2.17,14.32t8.27,4.53a9.84,9.84,0,0,0,5.31-1.34,8.81,8.81,0,0,0,3.34-4,23.38,23.38,0,0,0,1.7-6.2,61,61,0,0,0,.5-8.45v-8.87h-10.5V326.65h26.45v54.93H723.39l-1.29-11Q717.7,383,705.62,383Z"/><path class="cls-11" d="M742.78,381.58V273.41h17.48V381.58Z"/><path class="cls-11" d="M795.65,382.89q-15,0-21.52-9.07t-6.51-26.55V307.34a66.86,66.86,0,0,1,1.47-14.94,31,31,0,0,1,4.72-11,19.89,19.89,0,0,1,8.71-6.95,33.54,33.54,0,0,1,13.14-2.32q15,0,21.49,8.94t6.54,26.23v39.93a66.22,66.22,0,0,1-1.5,14.91,32.44,32.44,0,0,1-4.75,11.16,20.3,20.3,0,0,1-8.71,7.14A32.17,32.17,0,0,1,795.65,382.89Zm-4.43-15.46a10.54,10.54,0,0,0,4.43.85,10.34,10.34,0,0,0,4.4-.85,7.86,7.86,0,0,0,2.9-2.22,10.07,10.07,0,0,0,1.7-3.59,25.36,25.36,0,0,0,.82-4.44q.2-2.22.21-5.28V302.77a50,50,0,0,0-.35-6.52,18.07,18.07,0,0,0-1.38-4.93,7.12,7.12,0,0,0-3.08-3.46,10.65,10.65,0,0,0-5.22-1.14,10.83,10.83,0,0,0-5.25,1.14,6.94,6.94,0,0,0-3.08,3.46,18.71,18.71,0,0,0-1.35,4.93,50.24,50.24,0,0,0-.35,6.52V351.9q0,3.07.21,5.28a25.27,25.27,0,0,0,.82,4.44,10.4,10.4,0,0,0,1.67,3.59A7.55,7.55,0,0,0,791.22,367.42Z"/><path class="cls-11" d="M830.64,381.58V273.41h12.2l23.81,61.26V273.41h14.66V381.58H869.69l-24-64.39v64.39Z"/><path class="cls-11" d="M914.36,382.89q-25.69,0-27-33l15.42-3.59q.59,21.47,11,21.46a6.9,6.9,0,0,0,6-2.74,12.41,12.41,0,0,0,2-7.37,22.49,22.49,0,0,0-1.47-8.25,22.9,22.9,0,0,0-3.4-6.13,76.53,76.53,0,0,0-5.51-5.9L898.64,325a39.19,39.19,0,0,1-8.39-11.38q-2.76-5.9-2.76-14.78,0-12.59,6.66-19.57t18.27-7.11a26,26,0,0,1,9.44,1.47,19.35,19.35,0,0,1,6.77,4.11,21.31,21.31,0,0,1,4.46,6.43,37.33,37.33,0,0,1,2.67,8A66.74,66.74,0,0,1,937,301.4l-15.13,3.33q-.12-3.26-.38-5.68a34.23,34.23,0,0,0-.91-4.89,13.24,13.24,0,0,0-1.67-4,7.43,7.43,0,0,0-2.76-2.45,7.14,7.14,0,0,0-4-.72,7.91,7.91,0,0,0-6,2.9A11.12,11.12,0,0,0,904,297a17.69,17.69,0,0,0,1.85,8.58,32.2,32.2,0,0,0,5.78,7.21L924.33,325a71.33,71.33,0,0,1,5.51,6.2,52.84,52.84,0,0,1,4.49,6.85,33.49,33.49,0,0,1,3.25,8.48,41.77,41.77,0,0,1,1.11,9.79q0,11.81-6.71,19.18T914.36,382.89Z"/><path class="cls-11" d="M576,111.77V3.6h17.48V111.77Z"/><path class="cls-11" d="M602.43,111.77V3.6h12.2l23.81,61.26V3.6H653.1V111.77H641.49l-24-64.39v64.39Z"/><path class="cls-11" d="M694.45,111.77V18.15h-16.3V3.6h49.79V18.15H712.16v93.62Z"/><path class="cls-11" d="M729.85,111.77V3.6h17.71V48.81h19.76V3.6H785V111.77H767.32V62.84H747.56v48.93Z"/><path class="cls-11" d="M793.75,111.77V3.6h40.7v13.9h-23V48.55h18.18v13.9H811.46V98.13h23.28v13.64Z"/><path class="cls-11" d="M87.8,506.75q-10.65,0-15.27-6.52t-4.62-19.1V452.41a48.73,48.73,0,0,1,1-10.75,22.48,22.48,0,0,1,3.35-7.88,14.16,14.16,0,0,1,6.18-5,23.52,23.52,0,0,1,9.32-1.67q10.61,0,15.25,6.43t4.64,18.86v28.72a48.24,48.24,0,0,1-1.06,10.72,23.51,23.51,0,0,1-3.37,8A14.45,14.45,0,0,1,97.08,505,22.57,22.57,0,0,1,87.8,506.75Zm-3.14-11.12a7.39,7.39,0,0,0,3.14.61,7.26,7.26,0,0,0,3.12-.61A5.58,5.58,0,0,0,93,494a7.25,7.25,0,0,0,1.21-2.58,18.39,18.39,0,0,0,.58-3.19q.15-1.59.15-3.8V449.13a36.53,36.53,0,0,0-.25-4.69,13.1,13.1,0,0,0-1-3.54,5.1,5.1,0,0,0-2.18-2.49,7.49,7.49,0,0,0-3.7-.82,7.6,7.6,0,0,0-3.72.82,5,5,0,0,0-2.19,2.49,13.62,13.62,0,0,0-1,3.54,36.73,36.73,0,0,0-.25,4.69v35.33q0,2.21.15,3.8a18.38,18.38,0,0,0,.58,3.19A7.52,7.52,0,0,0,82.6,494,5.37,5.37,0,0,0,84.66,495.63Z"/><path class="cls-11" d="M112.63,505.81V428H141v9.81H125.2v22.62h12.61v10H125.2v35.38Z"/><path class="cls-11" d="M40.8,596.22V528.89H29.23V518.43H64.56v10.46H53.37v67.33Z"/><path class="cls-11" d="M65.92,596.22v-77.8H78.48v32.52h14V518.43h12.57v77.8H92.51V561h-14v35.19Z"/><path class="cls-11" d="M111.26,596.22v-77.8h28.88v10H123.83v22.33h12.9v10h-12.9v25.67h16.52v9.81Z"/><path class="cls-11" d="M528.34,734.34a23.73,23.73,0,0,1-8-1.22,14.73,14.73,0,0,1-5.59-3.43,16,16,0,0,1-3.5-5.67,32.86,32.86,0,0,1-1.83-7.47,73.24,73.24,0,0,1-.52-9.33V655.45h12.22v53.22q0,2.73.13,4.65a31.69,31.69,0,0,0,.54,4,10.45,10.45,0,0,0,1.19,3.39,6.4,6.4,0,0,0,2.13,2.12,6.24,6.24,0,0,0,8.63-2.12,11.58,11.58,0,0,0,1.17-3.39,27.44,27.44,0,0,0,.54-4q.1-1.91.1-4.68V655.45h12.22v51.76a73.42,73.42,0,0,1-.52,9.33,32.86,32.86,0,0,1-1.83,7.47,16.16,16.16,0,0,1-3.48,5.67,14.55,14.55,0,0,1-5.57,3.43A23.59,23.59,0,0,1,528.34,734.34Z"/><path class="cls-11" d="M553.26,733.4V655.45h19.89q17.68,0,17.68,22.14,0,10.86-4.84,15.91t-13.63,5.05h-6.5V733.4Zm12.59-44.8h4q5.34,0,7.21-2.37T579,677.5a47.47,47.47,0,0,0-.25-5.59,9.73,9.73,0,0,0-1.17-3.6,4.78,4.78,0,0,0-2.73-2.23,15.82,15.82,0,0,0-4.9-.61h-4.09Z"/><path class="cls-11" d="M520.36,824V756.52H508.77V746h35.4v10.48H533V824Z"/><path class="cls-11" d="M564.2,824.93q-10.67,0-15.3-6.53t-4.63-19.13V770.49a48.78,48.78,0,0,1,1-10.77,22.51,22.51,0,0,1,3.36-7.9,14.18,14.18,0,0,1,6.19-5,23.56,23.56,0,0,1,9.34-1.67q10.63,0,15.28,6.44t4.65,18.9v28.77A48.35,48.35,0,0,1,583.07,810a23.56,23.56,0,0,1-3.38,8,14.48,14.48,0,0,1-6.19,5.15A22.61,22.61,0,0,1,564.2,824.93Zm-3.15-11.14a7.41,7.41,0,0,0,3.15.61,7.27,7.27,0,0,0,3.13-.61,5.6,5.6,0,0,0,2.06-1.6,7.27,7.27,0,0,0,1.21-2.59,18.45,18.45,0,0,0,.58-3.2q.15-1.6.15-3.81V767.2a36.59,36.59,0,0,0-.25-4.7,13.12,13.12,0,0,0-1-3.55,5.11,5.11,0,0,0-2.19-2.49,7.49,7.49,0,0,0-3.71-.82,7.61,7.61,0,0,0-3.73.82,5,5,0,0,0-2.19,2.49,13.65,13.65,0,0,0-1,3.55,36.79,36.79,0,0,0-.25,4.7v35.4q0,2.21.15,3.81a18.45,18.45,0,0,0,.58,3.2,7.54,7.54,0,0,0,1.19,2.59A5.38,5.38,0,0,0,561.06,813.78Z"/></g></g></svg>